<svg id="Layer_1" data-name="Layer 1" xmlns="http://www.w3.org/2000/svg" viewBox="0 0 545.49 662.33"><defs><style>.cls-1{fill:#231f20;}</style></defs><title>brasao</title><path class="cls-1" d="M485.9,358.4a14.68,14.68,0,0,0,1.62-6.18S487,354.54,485.9,358.4Z" transform="translate(-367.8 -69.34)"/><path class="cls-1" d="M453,490.64c0-1.81,5.19-17.84,17.61-40.64s10.16-47.19,10.16-47.19c-2,9.48-9.71,23-16,32.06S450,458.8,450,458.8c-4.74-7.68-21-27.09-21-27.09-23.26-32.51-22.58-48.32-22.58-48.32-2.71,22.13,4.06,58.71,21.45,75.64S453,490.64,453,490.64Z" transform="translate(-367.8 -69.34)"/><path class="cls-1" d="M449.81,387.67c1.35-3.16,6.55-12.64,21.9-28.22s21.68-46.06,21.68-46.06c-7.68,21.9-40.64,42.68-40.64,42.68C432,328.07,436,295.33,436,295.33c-19.19,39.74-1.81,62.54,1.58,68.87S449.81,387.67,449.81,387.67Z" transform="translate(-367.8 -69.34)"/><path class="cls-1" d="M449.58,441.42c3.39-6.32,20.55-40,20.55-40,7.91-16.46,13.27-34,15.77-43-2.56,5.43-7.9,11.64-14.19,18.88-8.81,10.16-22.13,28-22.13,28-28.9-26.64-33.42-59.83-33.42-59.83-8.13,20.77,10.16,61.19,20.1,72.25A64.71,64.71,0,0,1,449.58,441.42Z" transform="translate(-367.8 -69.34)"/><path class="cls-1" d="M448,287.2c-9.26,21.22,6.32,46.51,6.32,46.51,36.58-3.84,51-62.09,51-62.09-2,7.9-10.16,20.55-18.06,25.51s-23.93,15.58-23.93,15.58S463.13,298.49,462,282s4.52-24.38,4.52-24.38S457.26,266,448,287.2Z" transform="translate(-367.8 -69.34)"/><path class="cls-1" d="M504,232.56c-39.74,28.22-33.64,60.29-33.64,60.29,39.51-26.64,48.09-71.58,48.09-71.58C516.64,224.65,504,232.56,504,232.56Z" transform="translate(-367.8 -69.34)"/><path class="cls-1" d="M826.76,333.71s15.58-25.29,6.32-46.51-18.52-29.58-18.52-29.58,5.65,7.9,4.52,24.38-1.36,30.71-1.36,30.71-16-10.61-23.93-15.58-16-17.61-18.06-25.51C775.73,271.62,790.18,329.87,826.76,333.71Z" transform="translate(-367.8 -69.34)"/><path class="cls-1" d="M831.5,405.29s-13.32-17.84-22.13-28c-6.28-7.25-11.63-13.46-14.19-18.88,2.5,9,7.86,26.59,15.77,43,0,0,17.16,33.64,20.55,40a64.71,64.71,0,0,1,13.32-23.71c9.93-11.07,28.23-51.48,20.1-72.25C864.92,345.45,860.4,378.65,831.5,405.29Z" transform="translate(-367.8 -69.34)"/><path class="cls-1" d="M828.34,356.06s-33-20.77-40.64-42.68c0,0,6.32,30.48,21.67,46.06s20.55,25.06,21.9,28.22c0,0,8.81-17.16,12.19-23.48s20.77-29.13,1.58-68.87C845.05,295.33,849.12,328.07,828.34,356.06Z" transform="translate(-367.8 -69.34)"/><path class="cls-1" d="M852,431.71s-16.26,19.42-21,27.09c0,0-8.35-14.9-14.68-23.93s-14-22.58-16-32.06c0,0-2.26,24.39,10.16,47.19s17.61,38.83,17.61,40.64c0,0,7.68-14.67,25.06-31.61s24.16-53.51,21.45-75.64C874.63,383.39,875.31,399.19,852,431.71Z" transform="translate(-367.8 -69.34)"/><path class="cls-1" d="M810.73,292.84s6.1-32.06-33.64-60.29c0,0-12.64-7.9-14.45-11.29C762.64,221.27,771.22,266.2,810.73,292.84Z" transform="translate(-367.8 -69.34)"/><path class="cls-1" d="M795.19,358.4c-1.07-3.86-1.62-6.18-1.62-6.18A14.69,14.69,0,0,0,795.19,358.4Z" transform="translate(-367.8 -69.34)"/><path class="cls-1" d="M652.54,143.58l-11-33.25-11,33.25-33.75.67,26.92,21.23-9.81,33.67L641.5,179l27.68,20.13-9.81-33.67,26.92-21.23ZM662,188.94L641.5,174,621,188.94l7.28-25-20-15.75,25-.5,8.19-24.67,8.19,24.67,25,0.5-20,15.75Z" transform="translate(-367.8 -69.34)"/><path class="cls-1" d="M639.27,87.63a2.11,2.11,0,0,0,2.5-2.38,2.25,2.25,0,0,0-.57-1.54,2.37,2.37,0,0,0-1.86-.63l-4.52,0,0,4.54Z" transform="translate(-367.8 -69.34)"/><path class="cls-1" d="M620.34,95.12a4,4,0,0,0,2.62-1,4.91,4.91,0,0,0,1.38-2.24,7.82,7.82,0,0,0,.32-2.62,10,10,0,0,0-1.11-4.19q-1-1.9-3.9-1.78a4.3,4.3,0,0,0-2,.63A4.35,4.35,0,0,0,616,85.74a7,7,0,0,0-.63,3.23,8.65,8.65,0,0,0,1.32,4.5A3.89,3.89,0,0,0,620.34,95.12Z" transform="translate(-367.8 -69.34)"/><path class="cls-1" d="M681.56,89a2.51,2.51,0,0,0,.71-1.68,2.24,2.24,0,0,0-.42-1.58,2.35,2.35,0,0,0-1.79-.8l-4.5-.41L675.15,89l4.4,0.4A2.54,2.54,0,0,0,681.56,89Z" transform="translate(-367.8 -69.34)"/><polygon class="cls-1" points="357.75 23.79 357.7 23.78 354.06 29.86 358.27 30.86 357.75 23.79"/><path class="cls-1" d="M556.25,149.38c-0.7-3.3-2.43-2.43-5.91-13s-9.56-13.55-9.56-13.55A80.19,80.19,0,0,0,521.67,131c-22.59,13.38,12.69,17,12.69,17,17.55,3.65,14.77,10.95,14.77,10.95C557.47,155.81,556.95,152.68,556.25,149.38Z" transform="translate(-367.8 -69.34)"/><path class="cls-1" d="M538.56,107.18a3.89,3.89,0,0,0,3.92.7,4,4,0,0,0,2.28-1.63,4.9,4.9,0,0,0,.78-2.52,7.82,7.82,0,0,0-.34-2.62,9.92,9.92,0,0,0-2.12-3.79q-1.44-1.59-4.22-.76a4.32,4.32,0,0,0-1.79,1.11A4.38,4.38,0,0,0,536,99.87a7,7,0,0,0,.19,3.29A8.65,8.65,0,0,0,538.56,107.18Z" transform="translate(-367.8 -69.34)"/><path class="cls-1" d="M446.24,187.26c31.11-12,100.1-26.76,100.1-26.76,3.3-6.6-11.3-11.3-28.85-13.21s-21.38-13.56-21.38-13.56c-13.55,3.3-57.87,19.12-57.87,19.12C440.68,154.94,469,161,469,161,451.81,177,446.24,187.26,446.24,187.26Z" transform="translate(-367.8 -69.34)"/><path class="cls-1" d="M747.4,148s35.28-3.65,12.69-17A80.26,80.26,0,0,0,741,122.79s-6.08,3-9.56,13.55-5.21,9.73-5.91,13-1.22,6.43,7.13,9.56C732.63,158.93,729.85,151.64,747.4,148Z" transform="translate(-367.8 -69.34)"/><path class="cls-1" d="M516.93,145.73c-10.72-7.41-2.15-12.78-2.15-12.78,37.61-26,124.69-28.52,124.69-28.52,84.05,3.53,114.85,20.19,126,27.26s0,13.88,0,13.88c17.67-1.51,23.22-21.71,25.49-28.27s-2.78-9.59-2.78-9.59c-12.87-9.59-58.31-38.87-149.42-38.37S504,101,496.43,106s-5.71,10.91-5.71,10.91C497.63,144.58,516.93,145.73,516.93,145.73Zm249.28-43.17-1.36,18L761.3,119l0.43-3.63L756,112.82l-2.51,2.72-3.42-1.5,12.37-13.13ZM737.57,92.12l5,1.59-1.17,13.69h0l7-11.84,4.89,1.56-5.18,16.19-3.18-1,4.33-13.56-0.06,0-7.32,12.56-3.33-1.07,1.38-14.5-0.06,0-4.32,13.52-3.18-1Zm-9.11-2.25,1.94,17.92-3.77-.89-0.24-3.65-6.1-1.44-2,3.13-3.64-.86,9.77-15.16Zm-23.32-4.78,13.58,2.52-0.55,3-5-.93-2.55,13.76-3.51-.65L709.61,89l-5-.93ZM690.19,83l12.39,1.71-0.41,3-8.95-1.23L692.73,90l8.22,1.13-0.41,3L692.32,93l-0.6,4.36L701,98.61l-0.41,3-12.77-1.76Zm-17.82-1.74L681,82a5.88,5.88,0,0,1,2.88.95,4.41,4.41,0,0,1,1.6,1.92,5,5,0,0,1-.07,4.09,4,4,0,0,1-1,1.36,3.59,3.59,0,0,1-1.5.77,2.59,2.59,0,0,1,1.58,1.5,6,6,0,0,1,.2,2.46l-0.07.71a5.14,5.14,0,0,1-.12.77,8.53,8.53,0,0,0,0,1.71A0.86,0.86,0,0,0,685,99l0,0.47-3.9-.36a6,6,0,0,1-.16-1.27q0-.7,0-1.49c0-.53.07-1,0.09-1.52a5.31,5.31,0,0,0-.06-1.34,1.33,1.33,0,0,0-.63-0.82,3.91,3.91,0,0,0-1.7-.45l-3.77-.35-0.61,6.62-3.46-.32Zm-23.31-1.07,12.5,0.41-0.1,3-9-.3-0.12,3.62,8.29,0.27-0.1,3-8.3-.28-0.15,4.4,9.41,0.31-0.1,3-12.88-.43Zm-9.11,0a5.89,5.89,0,0,1,3,.66,4.42,4.42,0,0,1,1.78,1.75,5.13,5.13,0,0,1,.62,2.31,5.18,5.18,0,0,1-.29,1.77,4,4,0,0,1-.89,1.45,3.6,3.6,0,0,1-1.42.91,2.6,2.6,0,0,1,1.72,1.34,6,6,0,0,1,.43,2.42v0.71a5.44,5.44,0,0,1,0,.78,8.24,8.24,0,0,0,.21,1.7,0.86,0.86,0,0,0,.63.69V97.1l-3.92,0a6.22,6.22,0,0,1-.29-1.25q-0.09-.69-0.12-1.49t-0.05-1.52a5.38,5.38,0,0,0-.19-1.33,1.34,1.34,0,0,0-.71-0.76,3.89,3.89,0,0,0-1.74-.28l-3.79,0,0,6.64-3.48,0-0.11-17ZM612.55,85a6.81,6.81,0,0,1,2.54-3.35,9.39,9.39,0,0,1,7.63-1.09A7.2,7.2,0,0,1,625.37,82a7.6,7.6,0,0,1,1.95,2.74,11.46,11.46,0,0,1,.87,4.07,11.15,11.15,0,0,1-.39,3.74,7.83,7.83,0,0,1-1.52,2.88,7,7,0,0,1-2.5,1.88,9,9,0,0,1-3.29.76,8.2,8.2,0,0,1-4.31-.86,7.33,7.33,0,0,1-2.93-2.77,9.5,9.5,0,0,1-1.28-4l0-.61A12.36,12.36,0,0,1,612.55,85Zm-20.46-2,4.37,7,2.47-7.72,4-.45L598.5,92.94l0.7,6.35-3.52.39L595,93.3l-7-9.88Zm-16.66,2.38,5.24,11.43L581,97.51h0L582.61,85l0.11-.81,3.64-.57L584.2,96.22l-0.9,5.1-3.32.52-5.89-11.33-2.4-4.58Zm-16.1,3.12,5,6.51,1.72-7.92,4-.83-3.37,11.55L568,104l-3.47.73-1.31-6.27-7.91-9.16ZM532.44,100a6.82,6.82,0,0,1,1.62-3.88,9.38,9.38,0,0,1,7.12-3,7.17,7.17,0,0,1,2.94.76,7.58,7.58,0,0,1,2.57,2.17,11.52,11.52,0,0,1,1.86,3.73,11.13,11.13,0,0,1,.55,3.72,7.84,7.84,0,0,1-.76,3.17,7,7,0,0,1-2,2.44,9,9,0,0,1-3,1.55A8.21,8.21,0,0,1,539,111a7.33,7.33,0,0,1-3.53-2,9.5,9.5,0,0,1-2.25-3.6l-0.18-.58A12.32,12.32,0,0,1,532.44,100Zm-16.57,4.36a6.73,6.73,0,0,1,1.59-2.5,8.51,8.51,0,0,1,2.69-1.79,8.16,8.16,0,0,1,3.68-.69,6.46,6.46,0,0,1,3.19,1,6.55,6.55,0,0,1,2.21,2.41l-3.29,1.39a3.46,3.46,0,0,0-4.45-1.33,3.76,3.76,0,0,0-2.39,2.75,7.79,7.79,0,0,0,.65,4.57,0.21,0.21,0,0,1,.1.11,8.31,8.31,0,0,0,1.5,2.31A4.72,4.72,0,0,0,523.4,114a3.37,3.37,0,0,0,2.37-.16,3.62,3.62,0,0,0,2.33-4.44L531.4,108a8.87,8.87,0,0,1,.09,3.46,6.53,6.53,0,0,1-1.39,3,7.72,7.72,0,0,1-3,2.17,8.31,8.31,0,0,1-4.09.67,6.83,6.83,0,0,1-3.73-1.62,10.68,10.68,0,0,1-2.87-4.1,2.37,2.37,0,0,0-.15-0.48,12.06,12.06,0,0,1-.81-3.59A7.86,7.86,0,0,1,515.87,104.38Z" transform="translate(-367.8 -69.34)"/><path class="cls-1" d="M764.26,147.29c-17.55,1.91-32.15,6.6-28.85,13.21,0,0,69,14.77,100.1,26.76,0,0-5.56-10.26-22.77-26.24,0,0,28.33-6.08,30.76-8.17,0,0-44.32-15.81-57.87-19.12C785.63,133.74,781.81,145.38,764.26,147.29Z" transform="translate(-367.8 -69.34)"/><polygon class="cls-1" points="394.95 35.89 394.91 35.87 390.22 41.19 394.18 42.94 394.95 35.89"/><path class="cls-1" d="M775.26,393.31c0-106-60.18-192-134.41-192s-134.41,85.94-134.41,192c0,9,.44,17.88,1.29,26.56,21.09-11.31,45.85-20,73-25.21h0l-53.19-6.5L596,380.7l-18.93-10.46,21.92,0.5-15.45-16.44,20.43,7L560.65,307.7l53.56,43.85-6-20.93,15.45,15.45,0.25-22.17,9.72,19.18,7-68.76,7.22,69,9.72-19.43,0.25,21.92,15.69-15.45-6,20.93L721.08,308l-43.6,53.31,20.68-7-15.45,16.19h22.17L686,380.7l68,7.47-51.88,6.7-0.72-.13c27,5.23,51.62,13.88,72.61,25.13C774.82,411.19,775.26,402.32,775.26,393.31Z" transform="translate(-367.8 -69.34)"/><path class="cls-1" d="M640.86,389l-1.43,0L528.91,499.55A185.88,185.88,0,0,0,556,542.14l84.81-84.8,84.88,84.88a185.78,185.78,0,0,0,27.09-42.57L642.15,389Z" transform="translate(-367.8 -69.34)"/><path class="cls-1" d="M460.93,551a1.92,1.92,0,0,0,1.65.63,1.87,1.87,0,0,0,1.52-.86,3,3,0,0,0,.44-1.9,3,3,0,0,0-.71-1.83,1.86,1.86,0,0,0-1.62-.66,1.9,1.9,0,0,0-1.54.88A3.31,3.31,0,0,0,460.93,551Z" transform="translate(-367.8 -69.34)"/><polygon class="cls-1" points="132.38 477.4 130.43 485.43 135.46 485.08 132.44 477.39 132.38 477.4"/><path class="cls-1" d="M791.14,548.84a2.78,2.78,0,0,0-1-1.22,3,3,0,0,0-1.62-.54,2.52,2.52,0,0,0-2.1.87,3.8,3.8,0,0,0-.8,2.24,4.62,4.62,0,0,0,.52,2.63,2.47,2.47,0,0,0,2.15,1.15q2.87,0,3.08-3.48A4.15,4.15,0,0,0,791.14,548.84Z" transform="translate(-367.8 -69.34)"/><path class="cls-1" d="M686.87,642.3a6.41,6.41,0,0,0,6.16,2.26,6.57,6.57,0,0,0,4.17-2,8.09,8.09,0,0,0,2-3.86,12.88,12.88,0,0,0,.2-4.35,16.39,16.39,0,0,0-2.35-6.75q-1.88-3-6.62-2.45a7.1,7.1,0,0,0-3.22,1.28,7.18,7.18,0,0,0-2.42,3.23,11.57,11.57,0,0,0-.64,5.38A14.26,14.26,0,0,0,686.87,642.3Z" transform="translate(-367.8 -69.34)"/><path class="cls-1" d="M510.13,645.43a5.06,5.06,0,0,0,4.16-3.68,14.42,14.42,0,0,0,.18-7.08,19.37,19.37,0,0,0-1.42-4.22,5.91,5.91,0,0,0-2.41-2.62,5.72,5.72,0,0,0-4-.42L501,628.51l3.47,18Z" transform="translate(-367.8 -69.34)"/><path class="cls-1" d="M539.46,642.49a6.58,6.58,0,0,0,4.33-1.62,8.08,8.08,0,0,0,2.32-3.67,12.89,12.89,0,0,0,.58-4.32,16.44,16.44,0,0,0-1.76-6.93q-1.61-3.15-6.38-3a7.12,7.12,0,0,0-3.32,1,7.2,7.2,0,0,0-2.69,3,11.58,11.58,0,0,0-1.1,5.31,14.27,14.27,0,0,0,2.09,7.43A6.42,6.42,0,0,0,539.46,642.49Z" transform="translate(-367.8 -69.34)"/><path class="cls-1" d="M882,587.87c-11.64-4.82-25.29.2-25.29,0.2,39.95,12.44,39.34,18.87,24.89,25.09-11.25,4.84-27.12,3-47.14.43,4.48-4.44,11.48-12.49,12.5-20.38,0,0-15.67,11.81-27.13,18.54l-3.46-.4c-4.85-.54-9.57-1.09-14.19-1.63,9.49-4.67,26.38-13.67,32.64-21.44,22.47,1.63,41.78-7.1,49.1-11a80.84,80.84,0,0,1-27.49-10.53c1.8-4.82,5.29-14.29,7.18-20.21,15.6-8.36,39.48-24.1,49.69-43.15,0,0-15.66,11.34-43.36,17.54,0.67-6.74,2.61-24.43,5-29.91,0,0-12.05,23-25.75,33.15a170.34,170.34,0,0,1-17.44.7c7.51-4.53,18.39-14.5,32.69-36,0,0,12-16.93,13.55-60.74,0,0-7.45,34.55-26.42,50.58,0,0-19.64,21.22-26.87,29.8A149.81,149.81,0,0,0,813.21,480c-7.68-14.22-12.87-26-14.45-39.51,0,0-5.64,23.48,1.35,39.29,6.43,14.52,15.12,30.36,18.25,44.56-5.24-.24-10-0.49-14.47-0.72-5.67-12-14.14-31.63-15.63-44.77,0,0-4.54,11.36-3,32.18,0,0,0,6.63-.46,11.77-2,0-3.83-.06-5.6,0-0.61-3.87-1.91-11-3.78-14.75a71.63,71.63,0,0,0-9.84,15.9c-8.83,1.73-15.16,5.72-22.31,13.86-17.21,19.58-30,31.16-34.13,35.91-4,4.55-10.65,19.41,2.3,26.14l0,0a63.34,63.34,0,0,0-4.59,6.67c-15.68,1.69-32.94,4-55.71,4.7C616,612.26,597.77,608.61,574,606a65.44,65.44,0,0,0-4.31-6.19l0,0c13-6.73,6.27-21.6,2.3-26.14-4.16-4.75-16.92-16.32-34.13-35.91-7.15-8.14-13.48-12.12-22.31-13.86a71.64,71.64,0,0,0-9.84-15.9c-1.87,3.74-3.18,10.88-3.78,14.75-1.77,0-3.64,0-5.6,0-0.46-5.14-.46-11.77-0.46-11.77,1.51-20.82-3-32.18-3-32.18-1.49,13.14-10,32.78-15.63,44.77-4.42.23-9.23,0.48-14.47,0.72,3.13-14.21,11.82-30,18.25-44.56,7-15.8,1.35-39.29,1.35-39.29-1.58,13.54-6.77,25.29-14.45,39.51a149.83,149.83,0,0,0-11.52,28.45c-7.22-8.58-26.87-29.8-26.87-29.8-19-16-26.42-50.58-26.42-50.58,1.58,43.8,13.55,60.74,13.55,60.74,14.31,21.51,25.18,31.48,32.69,36a170.33,170.33,0,0,1-17.44-.7C418.17,514,406.12,491,406.12,491c2.43,5.48,4.38,23.17,5,29.91-27.7-6.21-43.37-17.54-43.37-17.54,10.21,19,34.09,34.79,49.69,43.15,1.88,5.91,5.38,15.39,7.18,20.21a80.84,80.84,0,0,1-27.49,10.53c7.32,3.94,26.63,12.67,49.1,11,6.32,7.83,23.45,16.93,32.89,21.56l-17.62,2.07c-11.49-6.7-27.41-18.71-27.41-18.71,1,7.92,8.07,16,12.55,20.43L435.16,615c-10.44,1.2-17.26,4-34.13-1.41s-7.83-12.44-2.21-15.46,26.9-10.24,26.9-10.24c-1,.2-6.63-0.8-8.83-1.8s-8.63-.6-8.63-0.6c-17.66,4.42-24.89,11.84-24.89,11.84-12.25,12.25-1.41,34.93-1.41,34.93,9,30.51,8.83,26.09,31.72,36.73a73.93,73.93,0,0,0,44.76,5.22c15.58-4.32,27.28-7.16,36.68-9,20.78,35.39,71.57,36.25,110.6,29a62.7,62.7,0,0,1,26.89.64c-24.38,13.57-36.84,23.78-47.49,36,0,0,8.48.91,12.41,0.91s6.36-2.72,10-7.87c2.42-3.43,13.73-18.84,33-26.49,19.29,7.65,30.59,23.05,33,26.49,3.63,5.15,6.06,7.87,10,7.87s12.41-.91,12.41-0.91c-10.66-12.22-23.11-22.43-47.49-36a62.71,62.71,0,0,1,26.89-.64c39,7.28,89.84,6.42,110.62-29,11.41,2.49,22,5.67,33,8.26,24.69,5.82,38.94-1,57.61-7.83s21.08-21.88,26.7-44.16S893.64,592.69,882,587.87Zm-83.72-35.81a4.84,4.84,0,0,1-.44-2.22,3.55,3.55,0,0,0,.09-0.68,4.68,4.68,0,0,1,1-2.25,5.41,5.41,0,0,1,2.26-1.59,7.49,7.49,0,0,1,3.26-.45,6.4,6.4,0,0,1,4.31,1.85,5,5,0,0,1,1.34,3.81,4.77,4.77,0,0,1-.73,2.13,3.85,3.85,0,0,1-1.76,1.45,4.49,4.49,0,0,1,2.08,2,5.3,5.3,0,0,1,.54,2.77,8.21,8.21,0,0,1-.12,1.12,6.19,6.19,0,0,1-2.19,3.7,6.8,6.8,0,0,1-4.68,1.29,8.38,8.38,0,0,1-3.52-.91,5.69,5.69,0,0,1-2.21-2,5.55,5.55,0,0,1-.84-2.62,6.87,6.87,0,0,0-.05-1,5,5,0,0,1,3.38-4.66A4.19,4.19,0,0,1,798.28,552.07Zm23.53,5.39a4.33,4.33,0,0,1-3.82,1.45,6.23,6.23,0,0,1-2.87-.88,5.44,5.44,0,0,1-2.09-2.3,6.94,6.94,0,0,1-.63-3.59,7.59,7.59,0,0,1,1-3.49,5.61,5.61,0,0,1,2.38-2.21,7.1,7.1,0,0,1,3.44-.67,8,8,0,0,1,2.79.64,5.67,5.67,0,0,1,2.06,1.56,7,7,0,0,1,1.3,2.54,12.88,12.88,0,0,1,.47,3.53c0,0.2,0,.51,0,1s0,0.79,0,1a21.42,21.42,0,0,1-.53,3.69,11,11,0,0,1-1.26,3.14,6.3,6.3,0,0,1-2.28,2.25,6.66,6.66,0,0,1-3.51.79,6.93,6.93,0,0,1-3.09-.87,5.5,5.5,0,0,1-2.05-2,5.27,5.27,0,0,1-.75-2.59l3.88,0.23a2.41,2.41,0,0,0,.67,1.52,2.51,2.51,0,0,0,1.58.55,2.38,2.38,0,0,0,1.56-.49,4.05,4.05,0,0,0,1.26-1.74,9,9,0,0,0,.62-3Zm-30.63-1.85a4.35,4.35,0,0,1-3.82,1.45,6.23,6.23,0,0,1-2.87-.88,5.43,5.43,0,0,1-2.09-2.3,7,7,0,0,1-.63-3.59,7.6,7.6,0,0,1,1-3.49,5.61,5.61,0,0,1,2.38-2.21,7.06,7.06,0,0,1,3.43-.67,8,8,0,0,1,2.79.64,5.68,5.68,0,0,1,2.06,1.56,7,7,0,0,1,1.3,2.54,13,13,0,0,1,.47,3.53c0,0.19,0,.51,0,1s0,0.79,0,1a21.41,21.41,0,0,1-.53,3.69,11,11,0,0,1-1.26,3.14,6.28,6.28,0,0,1-2.28,2.25,6.6,6.6,0,0,1-3.51.79,7,7,0,0,1-3.08-.87,5.5,5.5,0,0,1-2.05-2,5.26,5.26,0,0,1-.75-2.59l3.88,0.24a2.4,2.4,0,0,0,.67,1.51,2.5,2.5,0,0,0,1.58.56,2.38,2.38,0,0,0,1.56-.49,4,4,0,0,0,1.26-1.74,9.09,9.09,0,0,0,.62-3ZM767.74,546q5,0.3,5.58-3.06l3.17,0.19-1.18,19.56-3.88-.24L772.24,549l-4.67-.28Zm32,37.51c-4.06,3.89-12.69,12-15.26,13.45A47.15,47.15,0,0,1,781,581.07C787.41,581.86,793.72,582.71,799.75,583.55ZM762.35,579c0.45,6.38,1.9,18,6.48,27.12-5-.44-10-0.81-15-1.09-3.07-4.46-7.87-13.47-8.95-27.23C750.42,578.05,756.3,578.47,762.35,579Zm-52.93,53.12a19.85,19.85,0,0,1,.72-6,13,13,0,0,1,2.35-4.61,11.09,11.09,0,0,1,3.85-3,14,14,0,0,1,5.16-1.3,13.46,13.46,0,0,1,6.1,1,10.62,10.62,0,0,1,4.38,3.34,10.79,10.79,0,0,1,2.12,5l-5.87.35q-1.45-4.7-6.19-4.51a6.2,6.2,0,0,0-5.23,3,12.83,12.83,0,0,0-1.5,7.45,0.35,0.35,0,0,1,.09.23,13.54,13.54,0,0,0,1.07,4.4,7.79,7.79,0,0,0,2.46,3.2,5.54,5.54,0,0,0,3.77,1.06q5.22-.31,6.06-5.62l5.87-.34a14.57,14.57,0,0,1-1.76,5.42,10.77,10.77,0,0,1-3.81,3.9,12.74,12.74,0,0,1-5.84,1.73,13.72,13.72,0,0,1-6.72-1.2,11.26,11.26,0,0,1-4.9-4.56A17.55,17.55,0,0,1,709.4,633,3.79,3.79,0,0,0,709.42,632.15ZM749,617.59l6.77,0.38L764,646.49l-6.37-.36-1.43-5.85-10.3-.59-2.31,5.64-6.14-.35Zm-28.09-28.54s-3.6,3.6-7.47,8.29c-3.08-4.75-8.79-17.05,12.92-19.2,2.49-.25,5.22-0.39,8.12-0.44-0.89,6.27-2.91,20.64-3.54,26.91-3.92.12-7.8,0.35-11.72,0.66C719.05,600.38,719.28,594,720.88,589.05ZM679,628.93a11.24,11.24,0,0,1,3.75-5.82,15.45,15.45,0,0,1,12.4-2.74,11.91,11.91,0,0,1,4.54,2.08,12.49,12.49,0,0,1,3.54,4.26,18.93,18.93,0,0,1,1.94,6.58,18.39,18.39,0,0,1-.18,6.2,12.91,12.91,0,0,1-2.14,4.92,11.61,11.61,0,0,1-3.87,3.39,14.8,14.8,0,0,1-5.31,1.66,13.52,13.52,0,0,1-7.18-.87,12.08,12.08,0,0,1-5.16-4.19,15.6,15.6,0,0,1-2.61-6.48l-0.13-1A20.36,20.36,0,0,1,679,628.93Zm-4.6-5.9,0.76,4.88-8.34,1.3L670.38,652l-5.8.91L661,630.13l-8.32,1.3-0.76-4.88ZM606.84,639.9a20.37,20.37,0,0,1,2-7.74,11.21,11.21,0,0,1,4.85-4.94,15.44,15.44,0,0,1,12.7-.16,11.83,11.83,0,0,1,4,3,12.47,12.47,0,0,1,2.6,4.89,19,19,0,0,1,.56,6.84,18.37,18.37,0,0,1-1.43,6,13,13,0,0,1-3.09,4.39,11.63,11.63,0,0,1-4.48,2.53,14.81,14.81,0,0,1-5.53.55,13.53,13.53,0,0,1-6.86-2.31,12.07,12.07,0,0,1-4.2-5.14,15.62,15.62,0,0,1-1.24-6.88Zm-24.18-17.72,12.36,1.6a10.83,10.83,0,0,1,6.18,2.63,10.23,10.23,0,0,1,3,5.13,18,18,0,0,1,.35,6.43,23.7,23.7,0,0,1-2,7.1,12.19,12.19,0,0,1-4.36,5.12,9.82,9.82,0,0,1-6.86,1.33l-12.25-1.59Zm-15-24.84c-3.86-4.68-7.47-8.29-7.47-8.29,1.55,4.85,1.81,11,1.69,15.83-3.85-.25-7.79-0.39-11.75-0.44-0.65-6.36-2.63-20.52-3.52-26.74,2.9,0.05,5.63.2,8.12,0.44C576.47,580.29,570.76,592.59,567.68,597.34ZM526.82,625.7a11.22,11.22,0,0,1,4.23-5.47,15.45,15.45,0,0,1,12.59-1.66A11.86,11.86,0,0,1,548,621a12.52,12.52,0,0,1,3.15,4.55,19,19,0,0,1,1.36,6.72,18.42,18.42,0,0,1-.72,6.16,12.91,12.91,0,0,1-2.55,4.72,11.58,11.58,0,0,1-4.15,3,14.77,14.77,0,0,1-5.43,1.19,13.55,13.55,0,0,1-7.08-1.49,12,12,0,0,1-4.78-4.61,15.64,15.64,0,0,1-2-6.69l0-1A20.37,20.37,0,0,1,526.82,625.7Zm9.36-47.87c-1.07,13.63-5.79,22.61-8.86,27.1-5.4.29-10.47,0.66-15,1.05,4.53-9.13,6-20.62,6.41-27C524.79,578.47,530.67,578.05,536.18,577.84Zm-30-16.14-1.52-4-7.28.5-1.12,4.16-4.34.3,5.64-20.25,4.79-.33,8.35,19.28Zm-28.11.8a5.22,5.22,0,0,1-1.3-2.16,13.79,13.79,0,0,1-.6-3.43l0-.61L480,556a19.5,19.5,0,0,0,.31,2.55A2.75,2.75,0,0,0,481,560a1.91,1.91,0,0,0,1.53.45,3.15,3.15,0,0,0,1.58-.44,1.53,1.53,0,0,0,.64-1,6.79,6.79,0,0,0,.05-1.73l-1-13.91,4.12-.29,1,14.29a7.28,7.28,0,0,1-.39,3,4.72,4.72,0,0,1-1.82,2.29,7,7,0,0,1-3.53,1.07,10.77,10.77,0,0,1-3.06-.2A4.48,4.48,0,0,1,478.09,562.49Zm-20.22-15.39a4.25,4.25,0,0,1,1.51-1.86,5.18,5.18,0,0,1,2.69-.87,4.59,4.59,0,0,1,3.74,1.15,4.76,4.76,0,0,1,1.45,3.13,5,5,0,0,1-.36,2.24,4.14,4.14,0,0,1-1.49,1.85,5.92,5.92,0,0,1-5.48.38,4.2,4.2,0,0,1-1.75-1.62A4.91,4.91,0,0,1,457.87,547.11Zm9.21,9.66-8.28.57-0.15-2.2,8.28-.57Zm33,24.31A47.14,47.14,0,0,1,496.61,597c-2.58-1.43-11.2-9.56-15.26-13.45C487.37,582.71,493.67,581.86,500,581.07Zm6.64,41.38a10.85,10.85,0,0,1,6.7.55,10.26,10.26,0,0,1,4.48,3.93,18,18,0,0,1,2.35,6,23.66,23.66,0,0,1,.3,7.38,12.18,12.18,0,0,1-2.53,6.23,9.83,9.83,0,0,1-6.09,3.42l-12.12,2.34-5.3-27.49Zm21.18-82.12,1.37,19.76-4.12.28-9-13.51H516l1,14.07-3.88.27-1.37-19.76,4.38-.3,8.79,13.2H525l-1-13.75Zm-84,9.44q5-.35,5.14-3.75l3.17-.22,1.35,19.54-3.88.27-0.93-13.47-4.66.32Zm-21.59,93.31-13.21-3.5-1.86,7,15,4-1.27,4.78-20.52-5.45,7.18-27.06,19.91,5.28-1.27,4.78-14.38-3.82-1.53,5.76,13.21,3.51Zm35.16,16.51-0.33-23.05-8.32.12a10.65,10.65,0,0,1,.17,3.13l-5.55-.81q0.23-4.17-5.17-5a7.47,7.47,0,0,0-3.44.31,2.76,2.76,0,0,0-1.8,2.15,2.8,2.8,0,0,0,1.78,3.17l3.79,1.54q1.77,0.72,2.59,1.08a24,24,0,0,1,4.5,2.29,6,6,0,0,1,2.21,2.66,7.54,7.54,0,0,1,.29,3.91,8.28,8.28,0,0,1-2,4.54,8.42,8.42,0,0,1-3.5,2.34,13.15,13.15,0,0,1-3.65.73,15.89,15.89,0,0,1-2.8-.1q-11.81-1.85-10.77-11.06l5.59,0.82a4.18,4.18,0,0,0,2.18,4.42,7.7,7.7,0,0,0,2.63.85q6,0.88,6.58-2.5a2.64,2.64,0,0,0-.35-1.95,3.57,3.57,0,0,0-1.32-1.16q-0.79-.4-2.8-1.25-1.66-.71-2.57-1a22.73,22.73,0,0,1-4.53-2.08,7.35,7.35,0,0,1-2.72-3,7.69,7.69,0,0,1-.53-4.61,8.57,8.57,0,0,1,1.94-4.25,7.92,7.92,0,0,1,4-2.41,14,14,0,0,1,5.75-.2,14.52,14.52,0,0,1,5,1.57,9.08,9.08,0,0,1,3,2.62,8.55,8.55,0,0,1,1.29,2.77l-0.06-4.49,22.74-.33,0.07,4.94-8.44.12,0.33,23Zm29.38-10-10,2.49-0.54,6.07-6,1.48,2.88-29.56,6.58-1.64,16.35,24.78-6.19,1.54Zm261.8,22.7S679,670.5,645.68,687.76c-1.77.92-3.47,1.81-5.14,2.7-1.67-.88-3.37-1.78-5.14-2.7-33.31-17.26-102.95-15.44-102.95-15.44-19.41,1.71-29.25-3.63-33.88-7.84,16.38-3,25.57-3,37.55-3.14,19.27-.2,36.93,5,86.11,7.83s80.9-4.82,115-7.63a156.75,156.75,0,0,1,45.32,2.87C778,668.63,768.15,674,748.63,672.32Zm41.16-20.68-5.74-1-7.64-21.66-0.08,0-3.59,19.61-5.4-1,5-27.54,6.1,1.12,7.42,21.15H786l3.5-19.15,5.36,1Zm17.24,3.1-5.79-1L805.11,631l-8.3-1.41,0.83-4.87,22.42,3.82-0.83,4.87L810.9,632Zm17.16,2.4-5.83-.7,3.35-27.79,5.83,0.7Zm52.53-7.19a8.41,8.41,0,0,1-2.43,3.43,13,13,0,0,1-3.14,2,15.85,15.85,0,0,1-2.65.91q-11.69,2.49-14-6.47l5.51-1.24a4.18,4.18,0,0,0,3.62,3.34,7.67,7.67,0,0,0,2.76-.14q5.91-1.33,5.25-4.69a2.63,2.63,0,0,0-1-1.69,3.57,3.57,0,0,0-1.65-.62q-0.88-.09-3.06-0.16-1.8-.08-2.76,0a22.83,22.83,0,0,1-5-.32,7.34,7.34,0,0,1-3.61-1.81,7.7,7.7,0,0,1-2.15-4.12v0L852,658.39l-5.84-.1-11.08-20.13H835l-0.34,19.93-5.49-.09,0.47-28,6.2,0.11,10.77,19.65h0.08l0.33-19.47,5.45,0.09-0.07,4.07a7.81,7.81,0,0,1,.23-0.79,7.9,7.9,0,0,1,2.85-3.68,14,14,0,0,1,5.3-2.25,14.49,14.49,0,0,1,5.26-.34,9.07,9.07,0,0,1,3.79,1.35,8.44,8.44,0,0,1,2.43,2.43,10.64,10.64,0,0,1,1.33,2.93l-5.47,1.23q-1.28-4-6.61-2.79a7.5,7.5,0,0,0-3.1,1.52,2.76,2.76,0,0,0-.91,2.65,2.8,2.8,0,0,0,2.8,2.33l4.09,0.09q1.91,0,2.8.08a23.73,23.73,0,0,1,5,.52,6,6,0,0,1,3,1.69,7.52,7.52,0,0,1,1.67,3.54A8.28,8.28,0,0,1,876.73,649.95Z" transform="translate(-367.8 -69.34)"/><polygon class="cls-1" points="110.08 566.11 109.33 577.76 116.25 576.04 110.16 566.09 110.08 566.11"/><path class="cls-1" d="M619.44,650.31a6.56,6.56,0,0,0,4.49-1.09,8.1,8.1,0,0,0,2.74-3.37,12.94,12.94,0,0,0,1.08-4.22,16.42,16.42,0,0,0-.93-7.09q-1.23-3.31-6-3.74a6.93,6.93,0,0,0-6.44,3.28,11.56,11.56,0,0,0-1.72,5.14,14.26,14.26,0,0,0,1.2,7.62A6.41,6.41,0,0,0,619.44,650.31Z" transform="translate(-367.8 -69.34)"/><path class="cls-1" d="M596.19,644.48a14.42,14.42,0,0,0,2.39-6.66,19.32,19.32,0,0,0,0-4.45,5.92,5.92,0,0,0-1.47-3.24,5.72,5.72,0,0,0-3.66-1.65l-5.72-.74-2.35,18.19,5.72,0.74A5.07,5.07,0,0,0,596.19,644.48Z" transform="translate(-367.8 -69.34)"/><polygon class="cls-1" points="384.16 554.75 384.07 554.74 379.91 565.65 387.02 566.06 384.16 554.75"/><path class="cls-1" d="M802.93,561.81a3.46,3.46,0,0,0,2.35-.62,2.83,2.83,0,0,0,1-2.24,3.3,3.3,0,0,0-.27-1.57,2.71,2.71,0,0,0-1-1.17,3,3,0,0,0-1.53-.5,2.71,2.71,0,0,0-2,.7,3.66,3.66,0,0,0-.32,4.37A2.75,2.75,0,0,0,802.93,561.81Z" transform="translate(-367.8 -69.34)"/><path class="cls-1" d="M803.6,552.74a2.75,2.75,0,0,0,2-.54,2.24,2.24,0,0,0,.76-1.61,2.47,2.47,0,0,0-.56-1.79,2.29,2.29,0,0,0-1.7-.83,2.82,2.82,0,0,0-1.7.47,2.05,2.05,0,0,0-.85,1.45,3,3,0,0,0,.44,1.9A2.22,2.22,0,0,0,803.6,552.74Z" transform="translate(-367.8 -69.34)"/><path class="cls-1" d="M821.78,550.7a2.76,2.76,0,0,0-1-1.22,3,3,0,0,0-1.62-.54,2.52,2.52,0,0,0-2.1.87,3.8,3.8,0,0,0-.8,2.24,4.61,4.61,0,0,0,.52,2.63,2.47,2.47,0,0,0,2.15,1.15q2.87,0,3.08-3.49A4.14,4.14,0,0,0,821.78,550.7Z" transform="translate(-367.8 -69.34)"/></svg>