<?xml version="1.0" encoding="UTF-8" standalone="no"?><!DOCTYPE svg PUBLIC "-//W3C//DTD SVG 1.1//EN" "http://www.w3.org/Graphics/SVG/1.1/DTD/svg11.dtd"><svg width="100%" height="100%" viewBox="0 0 1920 627" version="1.1" xmlns="http://www.w3.org/2000/svg" xmlns:xlink="http://www.w3.org/1999/xlink" xml:space="preserve" xmlns:serif="http://www.serif.com/" style="fill-rule:evenodd;clip-rule:evenodd;stroke-linecap:square;stroke-miterlimit:1.5;"><g id="fundo"><path d="M943,345.131l-852,125c0,0 94,-413.163 446,-466c321,-48.183 406,341 406,341Z" style="fill:#fb3;"/><path d="M0,481.131l1920,-277l0,422l-1920,0l0,-145Z" style="fill:#dceaed;"/><path d="M159,458.131l801,-116c0,0 -30.427,166.864 -296.055,205c-380.5,54.629 -504.945,-89 -504.945,-89Z" style="fill:#006a97;fill-opacity:0.2;"/></g><g id="Tomada"><path d="M69,368.227l0,54.904l36,-6l0,-45l-36,-3.904Z" style="fill:#eee7dd;"/><path d="M72,372.131l-3,-2l0,53l36,-6l-3,-3l-30,5l0,-47Z" style="fill:#bcbcbc;"/><path d="M102,414.131l3,3l0,-45l-36,-3.904l3,3.904l30,3l0,39Z" style="fill:#fff;"/><ellipse cx="88" cy="395.679" rx="7.5" ry="11.5" style="fill:#d9cdb9;stroke:#433423;stroke-width:1px;"/><ellipse cx="88" cy="400.679" rx="1.63" ry="2.5" style="fill:#433523;stroke:#433423;stroke-width:1px;"/><rect x="85.06" y="391.131" width="1" height="6" style="fill:#23433e;stroke:#433423;stroke-width:1px;"/><rect x="89.94" y="390.918" width="1" height="6" style="fill:#23433e;stroke:#433423;stroke-width:1px;"/></g></svg>