<?xml version="1.0" encoding="UTF-8" standalone="no"?><!DOCTYPE svg PUBLIC "-//W3C//DTD SVG 1.1//EN" "http://www.w3.org/Graphics/SVG/1.1/DTD/svg11.dtd"><svg width="100%" height="100%" viewBox="0 0 1920 1080" version="1.1" xmlns="http://www.w3.org/2000/svg" xmlns:xlink="http://www.w3.org/1999/xlink" xml:space="preserve" xmlns:serif="http://www.serif.com/" style="fill-rule:evenodd;clip-rule:evenodd;stroke-linejoin:round;stroke-miterlimit:2;"><g id="servers"><g><g id="luzes"><g><path d="M750.987,566.535l7.3,0.252l0.728,-10.718l-13.2,-1.219l-5.46,-0.505l-0.751,11.797l6.591,0.228l4.792,0.165Z" style="fill:#43e8e1;fill-rule:nonzero;"/><path d="M701.834,583.072l0.204,-9.91l-7.705,-0.624l-5.561,-0.449l0,10.068l6.264,0.439l6.798,0.476Z" style="fill:#43e8e1;fill-rule:nonzero;"/><path d="M688.772,610.287l0,5.035l8.586,0.455l-0.348,-4.986l-8.238,-0.504Z" style="fill:#43e8e1;fill-rule:nonzero;"/><path d="M730.839,640.966l-7.201,-0.533l-0.726,-5.664l12.964,0.643l5.257,0.26l0.72,6.11l-6.345,-0.471l-4.669,-0.345Z" style="fill:#43e8e1;fill-rule:nonzero;"/><path d="M776.624,653.335l-0.182,-4.898l6.778,0.297l4.831,0.211l0,4.897l-5.445,-0.242l-5.982,-0.265Z" style="fill:#43e8e1;fill-rule:nonzero;"/><path d="M753.135,767.727l-2.669,-0.027l0.448,-6.307l2.221,-0.035l10.009,-0.167l-0.618,6.627l-9.391,-0.091Z" style="fill:#43e8e1;fill-rule:nonzero;"/><path d="M698.003,762.269l17.518,-0.289l0.167,5.383l-14.478,-0.14l-3.123,-0.031l-3.239,-0.032l0,-4.839l3.155,-0.052Z" style="fill:#43e8e1;fill-rule:nonzero;"/><path d="M774.444,776.927l-0.171,-4.893l6.371,-0.142l4.541,-0.103l0,4.905l-5.12,0.11l-5.621,0.123Z" style="fill:#43e8e1;fill-rule:nonzero;"/><path d="M731.621,772.991l0.123,4.863l-5.732,0.124l-9.99,0.217l-0.149,-4.852l9.551,-0.213l6.197,-0.139Z" style="fill:#43e8e1;fill-rule:nonzero;"/><path d="M728.023,794.587l-11.484,0.348l-0.071,-2.31l11.273,-0.366l0.282,2.328Z" style="fill:#43e8e1;fill-rule:nonzero;"/><path d="M701.832,793.1l5.207,-0.169l0.039,2.292l-5.191,0.158l-3.319,0.101l-3.72,0.114l0,-2.269l3.681,-0.121l3.303,-0.106Z" style="fill:#43e8e1;fill-rule:nonzero;"/></g></g></g></g></svg>