<?xml version="1.0" encoding="UTF-8" standalone="no"?><!DOCTYPE svg PUBLIC "-//W3C//DTD SVG 1.1//EN" "http://www.w3.org/Graphics/SVG/1.1/DTD/svg11.dtd"><svg width="100%" height="100%" viewBox="0 0 1920 1080" version="1.1" xmlns="http://www.w3.org/2000/svg" xmlns:xlink="http://www.w3.org/1999/xlink" xml:space="preserve" xmlns:serif="http://www.serif.com/" style="fill-rule:evenodd;clip-rule:evenodd;stroke-linejoin:round;stroke-miterlimit:2;"><g id="servers"><g><g id="luzes"><g><path d="M702.208,564.854l5.576,0.192l-0.207,-13.725l-5.079,-0.469l-9.745,-0.899l-3.981,-0.367l0,14.805l5.003,0.172l8.433,0.291Z" style="fill:#43e8e1;fill-rule:nonzero;"/><path d="M726.808,565.702l3.043,0.105l-0.509,-12.478l-2.534,-0.234l-11.582,-1.068l0.723,13.3l10.859,0.375Z" style="fill:#43e8e1;fill-rule:nonzero;"/><path d="M786.191,558.576l-18.104,-1.67l-0.174,10.212l15.013,0.517l3.18,0.11l3.274,0.114l0,-8.989l-3.189,-0.294Z" style="fill:#43e8e1;fill-rule:nonzero;"/><path d="M746.849,586.226l-0.313,-9.47l-7.569,-0.611l-8.723,-0.705l-3.436,-0.278l-10.37,-0.838l-8.525,-0.688l0.15,9.873l8.908,0.624l9.837,0.689l3.831,0.268l7.723,0.54l8.487,0.596Z" style="fill:#43e8e1;fill-rule:nonzero;"/><path d="M750.836,577.103l-0.134,9.393l6.213,0.435l10.644,0.744l0.158,-9.208l-10.171,-0.823l-6.71,-0.541Z" style="fill:#43e8e1;fill-rule:nonzero;"/><path d="M782.767,579.682l-5.488,-0.442l-0.085,9.111l5.456,0.382l3.259,0.229l3.471,0.243l0,-8.988l-3.386,-0.274l-3.227,-0.261Z" style="fill:#43e8e1;fill-rule:nonzero;"/><path d="M708.485,611.495l-7.229,-0.442l-0.101,4.926l7.405,0.393l10.193,0.542l8.055,0.426l0,-4.722l-8.316,-0.51l-10.007,-0.613Z" style="fill:#43e8e1;fill-rule:nonzero;"/><path d="M754.744,618.824l12.27,0.652l0.076,-4.392l-12.042,-0.737l-0.304,4.477Z" style="fill:#43e8e1;fill-rule:nonzero;"/><path d="M782.291,616.015l-5.355,-0.327l-0.039,4.312l5.337,0.284l3.383,0.18l3.763,0.199l0,-4.213l-3.724,-0.229l-3.365,-0.206Z" style="fill:#43e8e1;fill-rule:nonzero;"/><path d="M731.774,612.922l0.192,4.692l4.344,0.231l13.937,0.741l0.064,-4.529l-13.706,-0.84l-4.831,-0.295Z" style="fill:#43e8e1;fill-rule:nonzero;"/><path d="M776.291,644.329l-4.972,-0.367l0.186,-6.784l4.529,0.226l8.565,0.425l3.452,0.17l0,7.201l-4.342,-0.322l-7.418,-0.549Z" style="fill:#43e8e1;fill-rule:nonzero;"/><path d="M753.932,642.675l-2.844,-0.211l0.476,-6.273l2.368,0.117l10.664,0.527l-0.658,6.581l-10.006,-0.741Z" style="fill:#43e8e1;fill-rule:nonzero;"/><path d="M695.063,633.387l18.729,0.929l0.178,5.401l-15.477,-1.146l-3.341,-0.247l-3.465,-0.256l0,-4.848l3.376,0.167Z" style="fill:#43e8e1;fill-rule:nonzero;"/><path d="M734.872,651.491l0.304,-4.857l7.286,0.318l8.256,0.36l3.214,0.141l9.56,0.419l7.711,0.336l-0.135,4.882l-8.062,-0.355l-9.074,-0.402l-3.583,-0.158l-7.309,-0.323l-8.168,-0.361Z" style="fill:#43e8e1;fill-rule:nonzero;"/><path d="M730.987,646.451l0.129,4.873l-6.117,-0.27l-10.67,-0.473l-0.16,-4.866l10.203,0.446l6.615,0.29Z" style="fill:#43e8e1;fill-rule:nonzero;"/><path d="M698.659,645.038l5.715,0.249l0.087,4.859l-5.678,-0.25l-3.424,-0.153l-3.672,-0.162l0,-4.848l3.584,0.158l3.388,0.147Z" style="fill:#43e8e1;fill-rule:nonzero;"/><path d="M788.051,667.524l0,2.448l-7.48,-0.267l0.306,-2.425l7.174,0.244Z" style="fill:#43e8e1;fill-rule:nonzero;"/><path d="M770.69,666.939l6.445,0.217l0.089,2.432l-6.6,-0.236l-9.249,-0.329l-7.443,-0.265l0,-2.386l7.681,0.262l9.077,0.305Z" style="fill:#43e8e1;fill-rule:nonzero;"/><path d="M746.259,714.568l6.614,0.055l0.093,2.461l-6.775,-0.068l-9.492,-0.094l-7.64,-0.077l0,-2.418l7.887,0.066l9.313,0.075Z" style="fill:#43e8e1;fill-rule:nonzero;"/><path d="M727.147,667.808l-12.266,-0.435l-0.076,-2.317l12.04,0.405l0.302,2.347Z" style="fill:#43e8e1;fill-rule:nonzero;"/><path d="M699.158,664.528l5.57,0.187l0.041,2.297l-5.552,-0.195l-3.55,-0.127l-3.98,-0.142l0,-2.272l3.939,0.133l3.532,0.119Z" style="fill:#43e8e1;fill-rule:nonzero;"/><path d="M749.281,666.216l-0.179,2.372l-4.11,-0.146l-13.43,-0.476l-0.062,-2.349l13.211,0.446l4.57,0.153Z" style="fill:#43e8e1;fill-rule:nonzero;"/><path d="M774.129,767.931l-4.671,-0.046l0.175,-6.801l4.256,-0.071l8.05,-0.133l3.246,-0.053l0,7.211l-4.082,-0.039l-6.974,-0.068Z" style="fill:#43e8e1;fill-rule:nonzero;"/><path d="M731.482,767.517l-6.746,-0.065l-0.678,-5.615l12.145,-0.2l4.928,-0.082l0.674,6.062l-5.948,-0.057l-4.375,-0.043Z" style="fill:#43e8e1;fill-rule:nonzero;"/><path d="M735.261,777.778l0.285,-4.875l6.831,-0.153l7.743,-0.174l3.015,-0.068l8.972,-0.201l7.243,-0.163l-0.126,4.896l-7.574,0.164l-8.515,0.185l-3.362,0.074l-6.856,0.148l-7.656,0.167Z" style="fill:#43e8e1;fill-rule:nonzero;"/><path d="M701.365,773.67l5.344,-0.121l0.081,4.847l-5.308,0.115l-3.202,0.07l-3.432,0.074l0,-4.839l3.349,-0.075l3.168,-0.071Z" style="fill:#43e8e1;fill-rule:nonzero;"/><path d="M785.185,790.395l0,2.452l-7.032,0.215l0.288,-2.448l6.744,-0.219Z" style="fill:#43e8e1;fill-rule:nonzero;"/><path d="M768.867,790.925l6.056,-0.196l0.084,2.429l-6.202,0.189l-8.685,0.262l-6.985,0.214l0,-2.388l7.209,-0.233l8.523,-0.277Z" style="fill:#43e8e1;fill-rule:nonzero;"/><path d="M745.937,840.131l6.204,-0.359l0.087,2.456l-6.355,0.355l-8.899,0.497l-7.158,0.402l0,-2.416l7.389,-0.428l8.732,-0.507Z" style="fill:#43e8e1;fill-rule:nonzero;"/><path d="M748.771,791.577l-0.169,2.382l-3.853,0.118l-12.59,0.383l-0.058,-2.343l12.385,-0.401l4.285,-0.139Z" style="fill:#43e8e1;fill-rule:nonzero;"/></g></g></g></g></svg>