<?xml version="1.0" encoding="UTF-8" standalone="no"?><!DOCTYPE svg PUBLIC "-//W3C//DTD SVG 1.1//EN" "http://www.w3.org/Graphics/SVG/1.1/DTD/svg11.dtd"><svg width="100%" height="100%" viewBox="0 0 1920 504" version="1.1" xmlns="http://www.w3.org/2000/svg" xmlns:xlink="http://www.w3.org/1999/xlink" xml:space="preserve" xmlns:serif="http://www.serif.com/" style="fill-rule:evenodd;clip-rule:evenodd;stroke-linejoin:round;stroke-miterlimit:2;"><path d="M661.888,108.447l29.822,-19.946l10.543,0.415c27.66,-15.654 58.283,-36.061 89.365,-57.201l1.036,-26.358c8.741,-6.971 18.744,-6.742 26.462,-1.599c5.853,3.901 15.834,4.039 21.086,0.829c8.114,-4.96 10.164,-1.949 15.814,0.622c10.392,-3.321 16.716,-1.283 20.983,3.465l1.806,21.19l12.66,13.697c22.255,16.805 44.599,30.526 67.079,39.596c8.541,5.676 17.176,9.763 25.943,11.58l12.764,11.061l-335.363,2.649Z" style="fill:#4dae89;"/><path d="M1920,104.447c0,0 -311.741,-13 -427.765,0c-59.089,6.621 -91.854,-10.518 -178.376,0l-322.044,0c-191.534,-17.24 -391.734,-7.724 -591.354,0c-193.95,12.264 -323.003,11.365 -400.461,0l0,399l1920,0l0,-399Z" style="fill:#4dae89;"/></svg>