<?xml version="1.0" encoding="UTF-8" standalone="no"?><!DOCTYPE svg PUBLIC "-//W3C//DTD SVG 1.1//EN" "http://www.w3.org/Graphics/SVG/1.1/DTD/svg11.dtd"><svg width="100%" height="100%" viewBox="0 0 2454 681" version="1.1" xmlns="http://www.w3.org/2000/svg" xmlns:xlink="http://www.w3.org/1999/xlink" xml:space="preserve" xmlns:serif="http://www.serif.com/" style="fill-rule:evenodd;clip-rule:evenodd;stroke-linecap:round;stroke-linejoin:round;stroke-miterlimit:1.5;"><g id="terra-3" serif:id="terra 3"><g><g><g><path d="M2453.36,261.962c-416.445,-12.05 -1009.26,7.568 -1451.57,53.668l0,35.139l1451.57,0l0,-88.807Z" style="fill:url(#_Linear1);"/><path d="M837.971,217.21l-282.155,3.651l0,132.274l568.641,7.856c-108.333,-42.677 -246.8,-96.232 -286.486,-143.781Z" style="fill:#ba5e21;fill-opacity:0;"/><path d="M819.431,214.702c-360.577,-17.596 -569.027,59.262 -819.431,85.798l0,52.635l819.431,0c-517.625,-39.517 133.736,-131.907 0,-138.433Z" style="fill:#e9b36b;fill-opacity:0;"/></g><clipPath id="_clip2"><path d="M2453.36,348.213c-221.776,-18.618 -717.525,-13.582 -1075.9,0c-438.283,16.612 -1377.46,-44.722 -1377.46,-44.722l0,376.948l2453.36,0l0,-332.226Z"/></clipPath><g clip-path="url(#_clip2)"></g></g></g><g><g><path d="M1663.29,225.117c-8.503,0 -15.407,6.903 -15.407,15.407c0,8.503 6.904,15.407 15.407,15.407c8.503,0 15.407,-6.904 15.407,-15.407c0,-8.504 -6.904,-15.407 -15.407,-15.407Zm-18.748,-50.118c-12.561,0 -22.758,10.197 -22.758,22.758c0,12.56 10.197,22.758 22.758,22.758c12.56,0 22.757,-10.198 22.757,-22.758c0,-12.561 -10.197,-22.758 -22.757,-22.758Zm66.35,-161.162c-2.011,-0.386 -4.087,-0.588 -6.209,-0.588c-8.641,0 -16.505,3.35 -22.363,8.821c-4.847,-12.052 -16.65,-20.57 -30.428,-20.57c-18.092,0 -32.781,14.689 -32.781,32.781c0,0.524 0.012,1.045 0.037,1.563c-3.16,-1.015 -6.528,-1.563 -10.023,-1.563c-18.092,0 -32.781,14.689 -32.781,32.782c0,11.459 5.892,21.552 14.81,27.413c-3.06,4.983 -4.824,10.845 -4.824,17.116c0,15.265 10.455,28.106 24.589,31.748c4.444,12.837 16.647,22.066 30.988,22.066c13.979,0 25.926,-8.769 30.636,-21.102c0.709,0.046 1.424,0.07 2.145,0.07c5.969,0 11.568,-1.599 16.39,-4.392c4.823,2.793 10.422,4.392 16.391,4.392c18.092,0 32.781,-14.689 32.781,-32.782c0,-1.444 -0.093,-2.867 -0.275,-4.263c3.002,1.007 6.216,1.553 9.555,1.553c16.596,0 30.071,-13.475 30.071,-30.071c0,-14.658 -10.511,-26.881 -24.401,-29.536c1.089,-3.108 1.681,-6.449 1.681,-9.927c0,-16.597 -13.475,-30.071 -30.071,-30.071c-5.844,0 -11.301,1.671 -15.918,4.56Z" style="fill:#fff;stroke:#fff;stroke-width:3px;"/><text x="1690.86px" y="109.995px" style="font-family:'ArialMT', 'Arial', sans-serif;font-size:85.668px;">?</text><clipPath id="_clip3"><rect x="1608.31" y="39.348" width="78.927" height="78.927"/></clipPath><g clip-path="url(#_clip3)"><rect x="1608.31" y="39.348" width="78.927" height="78.927" style="fill:none;"/><path d="M1644.62,50.397l0,-5.525c0,-1.307 1.061,-2.367 2.368,-2.367c1.307,0 2.368,1.06 2.368,2.367l0,5.525" style="fill:none;fill-rule:nonzero;stroke:#000;stroke-width:3.16px;stroke-linecap:butt;stroke-miterlimit:10;"/><path d="M1649.35,69.34l0,7.893" style="fill:none;fill-rule:nonzero;stroke:#000;stroke-width:3.16px;stroke-linecap:butt;stroke-miterlimit:10;"/><path d="M1644.62,77.233l0,-7.893" style="fill:none;fill-rule:nonzero;stroke:#000;stroke-width:3.16px;stroke-linecap:butt;stroke-miterlimit:10;"/><path d="M1649.35,96.175l0,22.1" style="fill:none;fill-rule:nonzero;stroke:#000;stroke-width:3.16px;stroke-linecap:butt;stroke-miterlimit:10;"/><path d="M1644.62,118.275l0,-22.1" style="fill:none;fill-rule:nonzero;stroke:#000;stroke-width:3.16px;stroke-linecap:butt;stroke-miterlimit:10;"/><path d="M1677.77,69.34l-53.671,0l0,-18.943l53.671,0l7.892,9.472l-7.892,9.471Z" style="fill:none;fill-rule:nonzero;stroke:#000;stroke-width:3.16px;stroke-linecap:butt;stroke-miterlimit:10;"/><path d="M1617.78,96.175l53.67,0l0,-18.942l-53.67,0l-7.893,9.471l7.893,9.471Z" style="fill:none;fill-rule:nonzero;stroke:#000;stroke-width:3.16px;stroke-linecap:butt;stroke-miterlimit:10;"/></g></g></g></g><defs><linearGradient id="_Linear1" x1="0" y1="0" x2="1" y2="0" gradientUnits="userSpaceOnUse" gradientTransform="matrix(1480.96,0,0,92.2823,1001.79,304.628)"><stop offset="0" style="stop-color:#e09737;stop-opacity:0"/><stop offset="1" style="stop-color:#e09737;stop-opacity:0"/></linearGradient></defs></svg>